<?xml version="1.0" encoding="UTF-8" standalone="no"?>
<!-- Created with Inkscape (http://www.inkscape.org/) -->

<svg
   xmlns:dc="http://purl.org/dc/elements/1.1/"
   xmlns:cc="http://creativecommons.org/ns#"
   xmlns:rdf="http://www.w3.org/1999/02/22-rdf-syntax-ns#"
   xmlns:svg="http://www.w3.org/2000/svg"
   xmlns="http://www.w3.org/2000/svg"
   xmlns:sodipodi="http://sodipodi.sourceforge.net/DTD/sodipodi-0.dtd"
   xmlns:inkscape="http://www.inkscape.org/namespaces/inkscape"
   width="3.5007679cm"
   height="1.9161882cm"
   viewBox="0 0 35.007679 19.161881"
   version="1.1"
   id="svg8"
   inkscape:version="0.92.4 (5da689c313, 2019-01-14)"
   sodipodi:docname="apagarhoje.svg">
  <defs
     id="defs2" />
  <sodipodi:namedview
     id="base"
     pagecolor="#ffffff"
     bordercolor="#666666"
     borderopacity="1.0"
     inkscape:pageopacity="0.0"
     inkscape:pageshadow="2"
     inkscape:zoom="2.3811284"
     inkscape:cx="67.838933"
     inkscape:cy="46.865879"
     inkscape:document-units="cm"
     inkscape:current-layer="layer1"
     showgrid="false"
     inkscape:window-width="1920"
     inkscape:window-height="996"
     inkscape:window-x="0"
     inkscape:window-y="31"
     inkscape:window-maximized="1"
     units="cm"
     fit-margin-top="0"
     fit-margin-left="0"
     fit-margin-right="0"
     fit-margin-bottom="0" />
  <metadata
     id="metadata5">
    <rdf:RDF>
      <cc:Work
         rdf:about="">
        <dc:format>image/svg+xml</dc:format>
        <dc:type
           rdf:resource="http://purl.org/dc/dcmitype/StillImage" />
        <dc:title />
      </cc:Work>
    </rdf:RDF>
  </metadata>
  <g
     inkscape:label="Camada 1"
     inkscape:groupmode="layer"
     id="layer1"
     transform="translate(172.31641,-56.285894)">
    <g
       transform="matrix(0.03386552,0,0,0.03386552,-130.3156,25.211997)"
       id="g1127"
       style="fill:#ffffff">
      <path
         id="path8038"
         d="m -689.11722,1119.4277 c -1.78004,0 -3.21792,1.4248 -3.21792,3.2049 v 19.5587 c 0,1.78 1.43788,3.2179 3.21792,3.2179 h 81.76016 c 1.78004,0 3.21792,-1.4379 3.21792,-3.2179 v -19.5587 c 0,-1.7801 -1.43788,-3.2049 -3.21792,-3.2049 z"
         style="fill:#ffffff;stroke-width:0.43309763"
         inkscape:connector-curvature="0" />
      <path
         id="path1073"
         d="m -752.94264,1118.0544 v -54.344 c 25.526,4.476 25.531,20.337 25.531,26.111 h 30.589 c 0,-31.9 -20.682,-52.481 -56.12,-56.962 v -21.724 h -30.589 v 21.724 c -35.437,4.481 -56.12,25.061 -56.12,56.962 0,31.901 20.682,52.48 56.12,56.961 v 54.344 c -25.526,-4.476 -25.531,-20.337 -25.531,-26.111 h -30.589 c 0,31.9 20.682,52.481 56.12,56.962 v 21.724 h 30.589 v -21.724 c 35.437,-4.481 56.12,-25.061 56.12,-56.962 0,-31.901 -20.683,-52.48 -56.12,-56.961 z m -56.12,-28.233 c 0,-5.774 0.005,-21.635 25.531,-26.111 v 52.221 c -25.526,-4.475 -25.531,-20.335 -25.531,-26.11 z m 56.12,111.306 v -52.222 c 25.526,4.476 25.531,20.337 25.531,26.111 0,5.774 -0.005,21.634 -25.531,26.111 z"
         style="fill:#ffffff"
         inkscape:connector-curvature="0" />
      <path
         id="path1077"
         d="m -616.50442,917.5674 h -210.782 c -60.355,0 -109.46,49.104 -109.46,109.461 v 51.652 l -19.521,-19.521 -21.628,21.629 56.444,56.444 56.443,-56.444 -21.629,-21.629 -19.52,19.52 v -51.652 c 0,-43.489 35.381,-78.872 78.871,-78.872 h 210.781 c 43.488,0 78.871,35.381 78.871,78.872 v 78.379 h 30.589 v -78.379 c 0,-60.356 -49.104,-109.46 -109.459,-109.46 z"
         style="fill:#ffffff"
         inkscape:connector-curvature="0" />
      <path
         id="path1079"
         d="m -465.89542,1192.4564 -56.444,-56.443 -56.443,56.443 21.63,21.629 19.52,-19.52 v 43.244 c 0,43.488 -35.381,78.871 -78.871,78.871 h -210.783 c -43.488,0 -78.871,-35.381 -78.871,-78.871 v -69.971 h -30.589 v 69.971 c 0,60.356 49.104,109.46 109.46,109.46 h 210.782 c 60.355,0 109.46,-49.103 109.46,-109.46 v -43.245 l 19.521,19.52 z"
         style="fill:#ffffff"
         inkscape:connector-curvature="0" />
    </g>
    <text
       xml:space="preserve"
       style="font-style:normal;font-variant:normal;font-weight:bold;font-stretch:normal;font-size:3.96935821px;line-height:1.25;font-family:Tahoma;-inkscape-font-specification:'Tahoma, Bold';font-variant-ligatures:normal;font-variant-caps:normal;font-variant-numeric:normal;font-feature-settings:normal;text-align:center;letter-spacing:0px;word-spacing:0px;writing-mode:lr-tb;text-anchor:middle;fill:#ffffff;fill-opacity:1;stroke:none;stroke-width:0.07498639;"
       x="-154.86957"
       y="75.387695"
       id="text1827"><tspan
         id="tspan1825"
         sodipodi:role="line"
         x="-154.86957"
         y="75.387695"
         style="font-style:normal;font-variant:normal;font-weight:bold;font-stretch:normal;font-size:3.96935821px;font-family:Tahoma;-inkscape-font-specification:'Tahoma, Bold';font-variant-ligatures:normal;font-variant-caps:normal;font-variant-numeric:normal;font-feature-settings:normal;text-align:center;writing-mode:lr-tb;text-anchor:middle;fill:#ffffff;stroke-width:0.07498639;">CONTAS A PAGAR</tspan></text>
  </g>
</svg>
