<?xml version="1.0" encoding="UTF-8" standalone="no"?>
<!-- Created with Inkscape (http://www.inkscape.org/) -->
<svg
   xmlns:svg="http://www.w3.org/2000/svg"
   xmlns="http://www.w3.org/2000/svg"
   version="1.0"
   width="800.00006"
   height="479.13364"
   id="svg2">
  <defs
     id="defs4" />
  <g
     transform="translate(-319.65842,411.94414)"
     id="layer1">
    <g
       transform="matrix(11.791045,0,0,11.791045,2942.2704,3871.1998)"
       id="barcode0"
       style="fill:#000000">
      <rect
         width="1"
         height="38"
         x="-222"
         y="-363"
         id="barcode0_bar1" />
      <rect
         width="1"
         height="38"
         x="-220"
         y="-363"
         id="barcode0_bar3" />
      <rect
         width="1"
         height="30"
         x="-218"
         y="-363"
         id="barcode0_bar5" />
      <rect
         width="4"
         height="30"
         x="-216"
         y="-363"
         id="barcode0_bar7" />
      <rect
         width="2"
         height="30"
         x="-211"
         y="-363"
         id="barcode0_bar9" />
      <rect
         width="1"
         height="30"
         x="-206"
         y="-363"
         id="barcode0_bar11" />
      <rect
         width="2"
         height="30"
         x="-204"
         y="-363"
         id="barcode0_bar13" />
      <rect
         width="3"
         height="30"
         x="-201"
         y="-363"
         id="barcode0_bar15" />
      <rect
         width="4"
         height="30"
         x="-197"
         y="-363"
         id="barcode0_bar17" />
      <rect
         width="1"
         height="30"
         x="-192"
         y="-363"
         id="barcode0_bar19" />
      <rect
         width="1"
         height="38"
         x="-190"
         y="-363"
         id="barcode0_bar21" />
      <rect
         width="1"
         height="38"
         x="-188"
         y="-363"
         id="barcode0_bar23" />
      <rect
         width="1"
         height="30"
         x="-186"
         y="-363"
         id="barcode0_bar25" />
      <rect
         width="1"
         height="30"
         x="-181"
         y="-363"
         id="barcode0_bar27" />
      <rect
         width="2"
         height="30"
         x="-179"
         y="-363"
         id="barcode0_bar29" />
      <rect
         width="2"
         height="30"
         x="-176"
         y="-363"
         id="barcode0_bar31" />
      <rect
         width="1"
         height="30"
         x="-172"
         y="-363"
         id="barcode0_bar33" />
      <rect
         width="3"
         height="30"
         x="-169"
         y="-363"
         id="barcode0_bar35" />
      <rect
         width="1"
         height="30"
         x="-165"
         y="-363"
         id="barcode0_bar37" />
      <rect
         width="3"
         height="30"
         x="-163"
         y="-363"
         id="barcode0_bar39" />
      <rect
         width="1"
         height="38"
         x="-158"
         y="-363"
         id="barcode0_bar41" />
      <rect
         width="1"
         height="38"
         x="-156"
         y="-363"
         id="barcode0_bar43" />
      <path
         d="M -213.21387,-326.63428 C -213.61231,-326.63427 -213.92871,-326.49804 -214.16309,-326.22559 C -214.39453,-325.95312 -214.51026,-325.57959 -214.51025,-325.10498 C -214.51026,-324.6333 -214.39453,-324.25976 -214.16309,-323.98438 C -213.92871,-323.71191 -213.61231,-323.57568 -213.21387,-323.57568 C -212.81543,-323.57568 -212.50049,-323.71191 -212.26904,-323.98438 C -212.03467,-324.25976 -211.91748,-324.6333 -211.91748,-325.10498 C -211.91748,-325.57959 -212.03467,-325.95312 -212.26904,-326.22559 C -212.50049,-326.49804 -212.81543,-326.63427 -213.21387,-326.63428 M -211.45166,-329.41602 L -211.45166,-328.60742 C -211.67432,-328.71288 -211.89991,-328.79345 -212.12842,-328.84912 C -212.35401,-328.90478 -212.57813,-328.93261 -212.80078,-328.93262 C -213.38672,-328.93261 -213.83496,-328.73486 -214.14551,-328.33936 C -214.45313,-327.94384 -214.62891,-327.34619 -214.67285,-326.54639 C -214.5,-326.80127 -214.28321,-326.99609 -214.02246,-327.13086 C -213.76172,-327.26855 -213.47461,-327.3374 -213.16113,-327.3374 C -212.50196,-327.3374 -211.98194,-327.13671 -211.60107,-326.73535 C -211.21729,-326.33691 -211.0254,-325.79345 -211.02539,-325.10498 C -211.0254,-324.43115 -211.22461,-323.89062 -211.62305,-323.4834 C -212.02149,-323.07617 -212.55176,-322.87256 -213.21387,-322.87256 C -213.97266,-322.87256 -214.55274,-323.1626 -214.9541,-323.74268 C -215.35547,-324.32568 -215.55615,-325.16943 -215.55615,-326.27393 C -215.55615,-327.31103 -215.31006,-328.1372 -214.81787,-328.75244 C -214.32569,-329.3706 -213.66504,-329.67968 -212.83594,-329.67969 C -212.61328,-329.67968 -212.38916,-329.65771 -212.16357,-329.61377 C -211.93506,-329.56982 -211.69776,-329.5039 -211.45166,-329.41602 M -209.48291,-329.56104 L -205.99805,-329.56104 L -205.99805,-328.81396 L -208.66992,-328.81396 L -208.66992,-327.20557 C -208.54102,-327.24951 -208.41211,-327.28173 -208.2832,-327.30225 C -208.1543,-327.32568 -208.02539,-327.3374 -207.89648,-327.3374 C -207.16407,-327.3374 -206.58399,-327.13671 -206.15625,-326.73535 C -205.72852,-326.33398 -205.51465,-325.79052 -205.51465,-325.10498 C -205.51465,-324.39892 -205.73438,-323.84961 -206.17383,-323.45703 C -206.61329,-323.06738 -207.23291,-322.87256 -208.03271,-322.87256 C -208.30811,-322.87256 -208.58936,-322.896 -208.87646,-322.94287 C -209.16065,-322.98975 -209.45508,-323.06006 -209.75977,-323.15381 L -209.75977,-324.0459 C -209.49609,-323.90234 -209.22363,-323.79541 -208.94238,-323.7251 C -208.66113,-323.65478 -208.36377,-323.61963 -208.05029,-323.61963 C -207.54346,-323.61963 -207.14209,-323.75293 -206.84619,-324.01953 C -206.5503,-324.28613 -206.40235,-324.64795 -206.40234,-325.10498 C -206.40235,-325.56201 -206.5503,-325.92383 -206.84619,-326.19043 C -207.14209,-326.45703 -207.54346,-326.59033 -208.05029,-326.59033 C -208.2876,-326.59033 -208.5249,-326.56396 -208.76221,-326.51123 C -208.99658,-326.45849 -209.23682,-326.37646 -209.48291,-326.26514 L -209.48291,-329.56104 M -201.86279,-326.11572 C -202.28467,-326.11572 -202.61719,-326.00293 -202.86035,-325.77734 C -203.10059,-325.55176 -203.2207,-325.24121 -203.2207,-324.8457 C -203.2207,-324.45019 -203.10059,-324.13965 -202.86035,-323.91406 C -202.61719,-323.68848 -202.28467,-323.57568 -201.86279,-323.57568 C -201.44092,-323.57568 -201.1084,-323.68848 -200.86523,-323.91406 C -200.62207,-324.14258 -200.50049,-324.45312 -200.50049,-324.8457 C -200.50049,-325.24121 -200.62207,-325.55176 -200.86523,-325.77734 C -201.10547,-326.00293 -201.43799,-326.11572 -201.86279,-326.11572 M -202.75049,-326.49365 C -203.13135,-326.5874 -203.42871,-326.76464 -203.64258,-327.02539 C -203.85352,-327.28613 -203.95899,-327.604 -203.95898,-327.979 C -203.95899,-328.50341 -203.77295,-328.91796 -203.40088,-329.22266 C -203.02588,-329.52734 -202.51319,-329.67968 -201.86279,-329.67969 C -201.20948,-329.67968 -200.69678,-329.52734 -200.32471,-329.22266 C -199.95264,-328.91796 -199.76661,-328.50341 -199.7666,-327.979 C -199.76661,-327.604 -199.87354,-327.28613 -200.0874,-327.02539 C -200.29834,-326.76464 -200.59278,-326.5874 -200.9707,-326.49365 C -200.54297,-326.39404 -200.21045,-326.19922 -199.97314,-325.90918 C -199.73292,-325.61914 -199.6128,-325.26465 -199.61279,-324.8457 C -199.6128,-324.20996 -199.80762,-323.72217 -200.19727,-323.38232 C -200.58399,-323.04248 -201.13916,-322.87256 -201.86279,-322.87256 C -202.58643,-322.87256 -203.14307,-323.04248 -203.53271,-323.38232 C -203.91943,-323.72217 -204.11279,-324.20996 -204.11279,-324.8457 C -204.11279,-325.26465 -203.99268,-325.61914 -203.75244,-325.90918 C -203.51221,-326.19922 -203.17822,-326.39404 -202.75049,-326.49365 M -203.07568,-327.89551 C -203.07569,-327.55566 -202.97022,-327.29052 -202.75928,-327.1001 C -202.54541,-326.90966 -202.24658,-326.81445 -201.86279,-326.81445 C -201.48194,-326.81445 -201.18457,-326.90966 -200.9707,-327.1001 C -200.75391,-327.29052 -200.64551,-327.55566 -200.64551,-327.89551 C -200.64551,-328.23535 -200.75391,-328.50048 -200.9707,-328.69092 C -201.18457,-328.88134 -201.48194,-328.97656 -201.86279,-328.97656 C -202.24658,-328.97656 -202.54541,-328.88134 -202.75928,-328.69092 C -202.97022,-328.50048 -203.07569,-328.23535 -203.07568,-327.89551 M -195.34131,-326.5376 C -194.91651,-326.44677 -194.58545,-326.25781 -194.34814,-325.9707 C -194.10792,-325.68359 -193.9878,-325.3291 -193.98779,-324.90723 C -193.9878,-324.25976 -194.21045,-323.75879 -194.65576,-323.4043 C -195.10108,-323.0498 -195.73389,-322.87256 -196.5542,-322.87256 C -196.82959,-322.87256 -197.11377,-322.90039 -197.40674,-322.95605 C -197.69678,-323.00879 -197.99707,-323.08936 -198.30762,-323.19775 L -198.30762,-324.05469 C -198.06152,-323.91113 -197.79199,-323.80273 -197.49902,-323.72949 C -197.20606,-323.65625 -196.8999,-323.61963 -196.58057,-323.61963 C -196.02393,-323.61963 -195.60059,-323.72949 -195.31055,-323.94922 C -195.01758,-324.16894 -194.8711,-324.48828 -194.87109,-324.90723 C -194.8711,-325.29394 -195.00733,-325.5957 -195.27979,-325.8125 C -195.54932,-326.03222 -195.92578,-326.14209 -196.40918,-326.14209 L -197.17383,-326.14209 L -197.17383,-326.87158 L -196.37402,-326.87158 C -195.9375,-326.87158 -195.60352,-326.958 -195.37207,-327.13086 C -195.14063,-327.30664 -195.02491,-327.55859 -195.0249,-327.88672 C -195.02491,-328.22363 -195.14502,-328.48144 -195.38525,-328.66016 C -195.62256,-328.84179 -195.96387,-328.93261 -196.40918,-328.93262 C -196.65235,-328.93261 -196.91309,-328.90624 -197.19141,-328.85352 C -197.46973,-328.80078 -197.77588,-328.71874 -198.10986,-328.60742 L -198.10986,-329.39844 C -197.77295,-329.49218 -197.45801,-329.56249 -197.16504,-329.60938 C -196.86914,-329.65624 -196.59082,-329.67968 -196.33008,-329.67969 C -195.65625,-329.67968 -195.12305,-329.52587 -194.73047,-329.21826 C -194.3379,-328.91357 -194.14161,-328.50048 -194.1416,-327.979 C -194.14161,-327.61572 -194.24561,-327.3081 -194.45361,-327.05615 C -194.66163,-326.80713 -194.95752,-326.63427 -195.34131,-326.5376 M -181.03271,-326.5376 C -180.60791,-326.44677 -180.27686,-326.25781 -180.03955,-325.9707 C -179.79932,-325.68359 -179.6792,-325.3291 -179.6792,-324.90723 C -179.6792,-324.25976 -179.90186,-323.75879 -180.34717,-323.4043 C -180.79248,-323.0498 -181.4253,-322.87256 -182.24561,-322.87256 C -182.521,-322.87256 -182.80518,-322.90039 -183.09814,-322.95605 C -183.38818,-323.00879 -183.68848,-323.08936 -183.99902,-323.19775 L -183.99902,-324.05469 C -183.75293,-323.91113 -183.4834,-323.80273 -183.19043,-323.72949 C -182.89746,-323.65625 -182.59131,-323.61963 -182.27197,-323.61963 C -181.71534,-323.61963 -181.292,-323.72949 -181.00195,-323.94922 C -180.70899,-324.16894 -180.5625,-324.48828 -180.5625,-324.90723 C -180.5625,-325.29394 -180.69873,-325.5957 -180.97119,-325.8125 C -181.24073,-326.03222 -181.61719,-326.14209 -182.10059,-326.14209 L -182.86523,-326.14209 L -182.86523,-326.87158 L -182.06543,-326.87158 C -181.62891,-326.87158 -181.29493,-326.958 -181.06348,-327.13086 C -180.83204,-327.30664 -180.71631,-327.55859 -180.71631,-327.88672 C -180.71631,-328.22363 -180.83643,-328.48144 -181.07666,-328.66016 C -181.31397,-328.84179 -181.65528,-328.93261 -182.10059,-328.93262 C -182.34375,-328.93261 -182.60449,-328.90624 -182.88281,-328.85352 C -183.16113,-328.80078 -183.46729,-328.71874 -183.80127,-328.60742 L -183.80127,-329.39844 C -183.46436,-329.49218 -183.14942,-329.56249 -182.85645,-329.60938 C -182.56055,-329.65624 -182.28223,-329.67968 -182.02148,-329.67969 C -181.34766,-329.67968 -180.81446,-329.52587 -180.42188,-329.21826 C -180.0293,-328.91357 -179.83301,-328.50048 -179.83301,-327.979 C -179.83301,-327.61572 -179.93702,-327.3081 -180.14502,-327.05615 C -180.35303,-326.80713 -180.64893,-326.63427 -181.03271,-326.5376 M -177.24463,-323.74707 L -174.14648,-323.74707 L -174.14648,-323 L -178.3125,-323 L -178.3125,-323.74707 C -177.97559,-324.0957 -177.51709,-324.56299 -176.93701,-325.14893 C -176.35401,-325.73779 -175.9878,-326.11718 -175.83838,-326.28711 C -175.5542,-326.60644 -175.35645,-326.87597 -175.24512,-327.0957 C -175.13086,-327.31836 -175.07373,-327.53662 -175.07373,-327.75049 C -175.07373,-328.09912 -175.19678,-328.3833 -175.44287,-328.60303 C -175.68604,-328.82275 -176.00391,-328.93261 -176.39648,-328.93262 C -176.67481,-328.93261 -176.96924,-328.88427 -177.27979,-328.7876 C -177.5874,-328.69091 -177.91699,-328.54443 -178.26855,-328.34814 L -178.26855,-329.24463 C -177.91113,-329.38818 -177.57715,-329.49658 -177.2666,-329.56982 C -176.95606,-329.64306 -176.67188,-329.67968 -176.41406,-329.67969 C -175.73438,-329.67968 -175.19239,-329.50976 -174.78809,-329.16992 C -174.38379,-328.83007 -174.18165,-328.37597 -174.18164,-327.80762 C -174.18165,-327.53808 -174.23291,-327.28173 -174.33545,-327.03857 C -174.43506,-326.79834 -174.61817,-326.51416 -174.88477,-326.18604 C -174.95801,-326.10107 -175.19092,-325.85498 -175.5835,-325.44775 C -175.97608,-325.04345 -176.52979,-324.47656 -177.24463,-323.74707 M -172.2876,-329.56104 L -168.80273,-329.56104 L -168.80273,-328.81396 L -171.47461,-328.81396 L -171.47461,-327.20557 C -171.34571,-327.24951 -171.2168,-327.28173 -171.08789,-327.30225 C -170.95899,-327.32568 -170.83008,-327.3374 -170.70117,-327.3374 C -169.96875,-327.3374 -169.38868,-327.13671 -168.96094,-326.73535 C -168.53321,-326.33398 -168.31934,-325.79052 -168.31934,-325.10498 C -168.31934,-324.39892 -168.53907,-323.84961 -168.97852,-323.45703 C -169.41797,-323.06738 -170.0376,-322.87256 -170.8374,-322.87256 C -171.1128,-322.87256 -171.39404,-322.896 -171.68115,-322.94287 C -171.96533,-322.98975 -172.25977,-323.06006 -172.56445,-323.15381 L -172.56445,-324.0459 C -172.30078,-323.90234 -172.02832,-323.79541 -171.74707,-323.7251 C -171.46582,-323.65478 -171.16846,-323.61963 -170.85498,-323.61963 C -170.34815,-323.61963 -169.94678,-323.75293 -169.65088,-324.01953 C -169.35498,-324.28613 -169.20704,-324.64795 -169.20703,-325.10498 C -169.20704,-325.56201 -169.35498,-325.92383 -169.65088,-326.19043 C -169.94678,-326.45703 -170.34815,-326.59033 -170.85498,-326.59033 C -171.09229,-326.59033 -171.32959,-326.56396 -171.56689,-326.51123 C -171.80127,-326.45849 -172.04151,-326.37646 -172.2876,-326.26514 L -172.2876,-329.56104 M -164.12695,-328.7876 L -166.36816,-325.28516 L -164.12695,-325.28516 L -164.12695,-328.7876 M -164.35986,-329.56104 L -163.24365,-329.56104 L -163.24365,-325.28516 L -162.30762,-325.28516 L -162.30762,-324.54688 L -163.24365,-324.54688 L -163.24365,-323 L -164.12695,-323 L -164.12695,-324.54688 L -167.08887,-324.54688 L -167.08887,-325.40381 L -164.35986,-329.56104"
         id="barcode0_bottomtext"
         style="font-size:9px;text-align:center;text-anchor:middle" />
    </g>
  </g>
</svg>
