<?xml version="1.0" encoding="UTF-8" standalone="no"?>
<!-- Generator: Adobe Illustrator 18.0.0, SVG Export Plug-In . SVG Version: 6.00 Build 0)  -->

<svg
   xmlns:dc="http://purl.org/dc/elements/1.1/"
   xmlns:cc="http://creativecommons.org/ns#"
   xmlns:rdf="http://www.w3.org/1999/02/22-rdf-syntax-ns#"
   xmlns:svg="http://www.w3.org/2000/svg"
   xmlns="http://www.w3.org/2000/svg"
   xmlns:sodipodi="http://sodipodi.sourceforge.net/DTD/sodipodi-0.dtd"
   xmlns:inkscape="http://www.inkscape.org/namespaces/inkscape"
   version="1.1"
   id="Capa_1"
   x="0px"
   y="0px"
   viewBox="0 0 106.04687 72.422867"
   xml:space="preserve"
   sodipodi:docname="novaVenda.svg"
   inkscape:version="0.92.4 (5da689c313, 2019-01-14)"
   width="106.04687"
   height="72.422867"><metadata
   id="metadata49"><rdf:RDF><cc:Work
       rdf:about=""><dc:format>image/svg+xml</dc:format><dc:type
         rdf:resource="http://purl.org/dc/dcmitype/StillImage" /><dc:title></dc:title></cc:Work></rdf:RDF></metadata><defs
   id="defs47" /><sodipodi:namedview
   pagecolor="#ffffff"
   bordercolor="#666666"
   borderopacity="1"
   objecttolerance="10"
   gridtolerance="10"
   guidetolerance="10"
   inkscape:pageopacity="0"
   inkscape:pageshadow="2"
   inkscape:window-width="1920"
   inkscape:window-height="996"
   id="namedview45"
   showgrid="false"
   inkscape:zoom="2.8284271"
   inkscape:cx="31.246855"
   inkscape:cy="45.331873"
   inkscape:window-x="0"
   inkscape:window-y="31"
   inkscape:window-maximized="1"
   inkscape:current-layer="g12"
   fit-margin-top="0"
   fit-margin-left="0"
   fit-margin-right="0"
   fit-margin-bottom="0" />
<g
   id="g12"
   transform="translate(25.489548,-9.3535378)">
	
	
	<g
   id="g876"
   transform="translate(0,5.3535218)"><path
     inkscape:connector-curvature="0"
     id="path2"
     d="M 28.205614,8.661245 1.1900448,35.89894 c -0.9200806,0.920081 -0.9200806,2.412692 0,3.333705 L 20.269176,58.309956 c 0.920081,0.92008 2.412692,0.92008 3.333705,0 L 49.906556,31.294386 V 8.661245 Z m 12.37895,5.593195 c 2.059228,0 3.728797,1.669569 3.728797,3.728797 0,2.059228 -1.669569,3.728797 -3.728797,3.728797 -2.059228,0 -3.728797,-1.669569 -3.728797,-3.728797 0,-2.059228 1.669569,-3.728797 3.728797,-3.728797 z M 27.854219,24.883696 c 1.461946,0.03848 2.862969,0.540306 4.021929,1.423789 l 0.453355,-0.453356 c 0.182245,-0.182245 0.420685,-0.273104 0.659094,-0.273104 0.238411,0 0.476849,0.09086 0.659094,0.273104 0.36449,0.36449 0.36449,0.953699 0,1.318189 l -0.453354,0.453354 c 2.071002,2.720485 1.871498,6.629357 -0.611756,9.112612 -0.36449,0.36449 -0.953698,0.36449 -1.318188,0 -0.36449,-0.36449 -0.36449,-0.953699 0,-1.318189 1.754827,-1.755652 1.951438,-4.483582 0.59719,-6.461669 l -6.516291,6.516291 0.560776,4.486208 c 0.164067,1.314401 -0.2208,2.659637 -1.054186,3.686921 -0.811945,1.001182 -1.953161,1.610694 -3.215359,1.715101 -0.193897,0.01771 -0.386907,0.02549 -0.580804,0.02549 -1.524744,0 -2.994088,-0.505019 -4.200358,-1.423789 l -0.75013,0.750129 c -0.182711,0.181778 -0.42045,0.273105 -0.659093,0.273105 -0.238643,0 -0.477315,-0.09133 -0.659094,-0.273105 -0.36449,-0.36449 -0.36449,-0.953698 0,-1.318188 l 0.748308,-0.748309 c -2.074942,-2.720682 -1.876616,-6.633343 0.608115,-9.118073 0.364489,-0.36449 0.953697,-0.36449 1.318187,0 0.364491,0.36449 0.364491,0.953698 0,1.318188 -1.756356,1.757183 -1.951685,4.488634 -0.593548,6.467132 l 6.51447,-6.51447 -0.562597,-4.493492 c -0.164067,-1.315333 0.219868,-2.658704 1.054187,-3.68692 0.811945,-1.00025 1.95316,-1.610695 3.215359,-1.715101 0.255539,-0.02109 0.511542,-0.02851 0.764694,-0.02185 z m -0.04916,1.862578 c -0.185533,-0.0047 -0.373288,5.39e-4 -0.560776,0.01639 -0.751353,0.06246 -1.434189,0.430137 -1.922661,1.032338 -0.515506,0.63576 -0.753421,1.467528 -0.651812,2.281338 l 0.382349,3.055138 5.489414,-5.489416 c -0.80565,-0.554011 -1.750109,-0.870969 -2.736513,-0.895788 z m -4.12935,10.398026 -5.485774,5.485773 c 0.957982,0.656535 2.11416,0.97682 3.291828,0.877578 0.751353,-0.06246 1.434188,-0.430136 1.922661,-1.032337 0.515507,-0.636692 0.753421,-1.467529 0.651811,-2.281339 z"
     style="fill:#ffffff;stroke-width:0.93219918" /><path
     inkscape:connector-curvature="0"
     id="path4"
     d="m 40.584564,10.525643 c -4.118456,0 -7.457594,3.339138 -7.457594,7.457594 0,4.118456 3.339138,7.457593 7.457594,7.457593 4.118456,0 7.457593,-3.339137 7.457593,-7.457593 0,-4.118456 -3.339137,-7.457594 -7.457593,-7.457594 z m 0,11.186391 c -2.059228,0 -3.728797,-1.669569 -3.728797,-3.728797 0,-2.059228 1.669569,-3.728797 3.728797,-3.728797 2.059228,0 3.728797,1.669569 3.728797,3.728797 0,2.059228 -1.669569,3.728797 -3.728797,3.728797 z"
     style="fill:#28685c;stroke-width:0.93219918" /><path
     inkscape:connector-curvature="0"
     id="path6"
     d="m 40.584564,18.915436 c -0.238643,0 -0.477286,-0.09136 -0.659065,-0.273134 -0.36449,-0.36449 -0.36449,-0.95364 0,-1.31813 L 52.976288,4.2733834 c 0.36449,-0.3644899 0.95364,-0.3644899 1.318129,0 0.36449,0.3644899 0.36449,0.9536398 0,1.3181297 L 41.243629,18.642302 c -0.181779,0.181779 -0.420422,0.273134 -0.659065,0.273134 z"
     style="fill:#ffffff;stroke-width:0.93219918" /></g>
	
	
<text
   xml:space="preserve"
   style="font-style:normal;font-variant:normal;font-weight:bold;font-stretch:normal;font-size:15.99999905px;line-height:1.25;font-family:Tahoma;-inkscape-font-specification:'Tahoma, Bold';font-variant-ligatures:normal;font-variant-caps:normal;font-variant-numeric:normal;font-feature-settings:normal;text-align:center;letter-spacing:0px;word-spacing:0px;writing-mode:lr-tb;text-anchor:middle;fill:#ffffff;fill-opacity:1;stroke:none;stroke-width:0.30226102"
   x="26.916698"
   y="81.534218"
   id="text880"><tspan
     id="tspan878"
     sodipodi:role="line"
     x="26.916698"
     y="81.534218"
     style="font-style:normal;font-variant:normal;font-weight:bold;font-stretch:normal;font-size:15.99999905px;font-family:Tahoma;-inkscape-font-specification:'Tahoma, Bold';font-variant-ligatures:normal;font-variant-caps:normal;font-variant-numeric:normal;font-feature-settings:normal;text-align:center;writing-mode:lr-tb;text-anchor:middle;fill:#ffffff;stroke-width:0.30226102">NOVA VENDA</tspan></text>
</g>
<g
   id="g14"
   transform="translate(25.489548,-9.3535378)">
</g>
<g
   id="g16"
   transform="translate(25.489548,-9.3535378)">
</g>
<g
   id="g18"
   transform="translate(25.489548,-9.3535378)">
</g>
<g
   id="g20"
   transform="translate(25.489548,-9.3535378)">
</g>
<g
   id="g22"
   transform="translate(25.489548,-9.3535378)">
</g>
<g
   id="g24"
   transform="translate(25.489548,-9.3535378)">
</g>
<g
   id="g26"
   transform="translate(25.489548,-9.3535378)">
</g>
<g
   id="g28"
   transform="translate(25.489548,-9.3535378)">
</g>
<g
   id="g30"
   transform="translate(25.489548,-9.3535378)">
</g>
<g
   id="g32"
   transform="translate(25.489548,-9.3535378)">
</g>
<g
   id="g34"
   transform="translate(25.489548,-9.3535378)">
</g>
<g
   id="g36"
   transform="translate(25.489548,-9.3535378)">
</g>
<g
   id="g38"
   transform="translate(25.489548,-9.3535378)">
</g>
<g
   id="g40"
   transform="translate(25.489548,-9.3535378)">
</g>
<g
   id="g42"
   transform="translate(25.489548,-9.3535378)">
</g>
</svg>