<?xml version="1.0" encoding="UTF-8" standalone="no"?>
<!-- Generator: Adobe Illustrator 19.0.0, SVG Export Plug-In . SVG Version: 6.00 Build 0)  -->

<svg
   xmlns:dc="http://purl.org/dc/elements/1.1/"
   xmlns:cc="http://creativecommons.org/ns#"
   xmlns:rdf="http://www.w3.org/1999/02/22-rdf-syntax-ns#"
   xmlns:svg="http://www.w3.org/2000/svg"
   xmlns="http://www.w3.org/2000/svg"
   xmlns:sodipodi="http://sodipodi.sourceforge.net/DTD/sodipodi-0.dtd"
   xmlns:inkscape="http://www.inkscape.org/namespaces/inkscape"
   version="1.1"
   id="Capa_1"
   x="0px"
   y="0px"
   viewBox="0 0 119.92968 72.422867"
   xml:space="preserve"
   sodipodi:docname="novoCliente.svg"
   inkscape:version="0.92.4 (5da689c313, 2019-01-14)"
   width="119.92968"
   height="72.422867"><metadata
   id="metadata39"><rdf:RDF><cc:Work
       rdf:about=""><dc:format>image/svg+xml</dc:format><dc:type
         rdf:resource="http://purl.org/dc/dcmitype/StillImage" /><dc:title></dc:title></cc:Work></rdf:RDF></metadata><defs
   id="defs37" /><sodipodi:namedview
   pagecolor="#ffffff"
   bordercolor="#666666"
   borderopacity="1"
   objecttolerance="10"
   gridtolerance="10"
   guidetolerance="10"
   inkscape:pageopacity="0"
   inkscape:pageshadow="2"
   inkscape:window-width="1920"
   inkscape:window-height="996"
   id="namedview35"
   showgrid="false"
   inkscape:zoom="2"
   inkscape:cx="210.44684"
   inkscape:cy="-12.873519"
   inkscape:window-x="0"
   inkscape:window-y="31"
   inkscape:window-maximized="1"
   inkscape:current-layer="Capa_1"
   fit-margin-top="0"
   fit-margin-left="0"
   fit-margin-right="0"
   fit-margin-bottom="0" />

<g
   id="g4"
   transform="translate(23.377926,25.87354)">
</g>
<g
   id="g6"
   transform="translate(23.377926,25.87354)">
</g>
<g
   id="g8"
   transform="translate(23.377926,25.87354)">
</g>
<g
   id="g10"
   transform="translate(23.377926,25.87354)">
</g>
<g
   id="g12"
   transform="translate(23.377926,25.87354)">
</g>
<g
   id="g14"
   transform="translate(23.377926,25.87354)">
</g>
<g
   id="g16"
   transform="translate(23.377926,25.87354)">
</g>
<g
   id="g18"
   transform="translate(23.377926,25.87354)">
</g>
<g
   id="g20"
   transform="translate(23.377926,25.87354)">
</g>
<g
   id="g22"
   transform="translate(23.377926,25.87354)">
</g>
<g
   id="g24"
   transform="translate(23.377926,25.87354)">
</g>
<g
   id="g26"
   transform="translate(23.377926,25.87354)">
</g>
<g
   id="g28"
   transform="translate(23.377926,25.87354)">
</g>
<g
   id="g30"
   transform="translate(23.377926,25.87354)">
</g>
<g
   id="g32"
   transform="translate(23.377926,25.87354)">
</g>
<g
   style="fill:#00ff00"
   inkscape:label="Camada 1"
   id="g919"
   transform="matrix(3.7795276,0,0,3.7795276,-721.18306,-873.46797)" /><g
   style="fill:#00ff00"
   inkscape:label="Camada 1"
   id="g927"
   transform="matrix(3.7795276,0,0,3.7795276,-721.18306,-873.46797)"><g
     id="g925"
     transform="translate(205.72968,-43.041753)"
     style="fill:#00ff00;stroke:#ffffff" /></g><g
   id="g1068"
   transform="translate(23.377926,-2.5)"
   style="stroke:none;fill:#ffffff"><path
     sodipodi:nodetypes="ccssccccccccccccccccscccccccccscccccscccccccsscccscc"
     inkscape:connector-curvature="0"
     id="path850"
     d="M 25,13.144531 V 17.875 c -0.64,0.729 -1,1.662 -1,2.625 v 4 c 0,0.304 0.03556,0.602578 0.101562,0.892578 0.027,0.116 0.08019,0.221985 0.117188,0.333984 0.055,0.168 0.09878,0.341 0.175781,0.5 10e-4,0.002 0.0029,0.0039 0.0039,0.0059 0.256,0.528 0.627656,0.999953 1.097656,1.376953 0.005,0.019 0.01258,0.03473 0.01758,0.05273 0.06,0.229 0.121453,0.458641 0.189453,0.681641 l 0.08203,0.259766 c 0.014,0.046 0.02992,0.09267 0.04492,0.138672 0.035,0.108 0.06947,0.216265 0.105469,0.322265 0.06,0.175 0.124265,0.355734 0.197265,0.552735 0.031,0.082 0.0637,0.155328 0.0957,0.236328 0.082,0.209 0.164,0.411328 0.25,0.611328 0.021,0.048 0.03955,0.09948 0.06055,0.146484 l 0.05664,0.126953 c 0.026,0.058 0.05213,0.109016 0.07813,0.166016 0.098,0.214 0.194922,0.421094 0.294922,0.621094 0.016,0.032 0.03088,0.06761 0.04687,0.09961 0.063,0.125 0.1245,0.243281 0.1875,0.363281 0.108,0.206 0.214312,0.399891 0.320313,0.587891 0.052,0.092 0.103296,0.182531 0.154296,0.269531 0.144,0.246 0.281063,0.471641 0.414063,0.681641 0.029,0.045 0.05794,0.09177 0.08594,0.134765 0.242,0.375 0.451,0.679016 0.625,0.916016 0.046,0.063 0.086,0.116922 0.125,0.169922 0.022,0.029 0.05131,0.07166 0.07031,0.09766 v 3.308594 c 0,0.968 -0.527953,1.856312 -1.376953,2.320312 l -2.644532,1.44336 -0.460937,-0.04102 -0.189453,0.394531 -5.625,3.06836 C 15.801172,46.923844 14,49.957719 14,53.261719 V 55.5 v 2 h 2 27.578125 c -4.807251,-1.898069 -7.98608,-6.670974 -7.992187,-12 0.0076,-6.036779 4.068347,-11.255297 9.761718,-12.544922 0.94603,-1.495181 1.732711,-3.110936 2.326172,-4.83789 C 49.084828,27.470188 50,26.075 50,24.5 v -4 c 0,-0.963 -0.36,-1.896 -1,-2.625 V 12.556641 C 49.056,12.006641 49.276203,8.73225 46.908203,6.03125 44.854203,3.68825 41.521,2.5 37,2.5 c -4.521,0 -7.854203,1.1872969 -9.908203,3.5292969 -1.435,1.637 -1.918453,3.4826396 -2.064453,4.8066411"
     style="fill:#ffffff;stroke:none" /><path
     id="circle931"
     d="M 48,34.326172 A 11.174216,11.174216 0 0 0 36.826172,45.5 11.174216,11.174216 0 0 0 48,56.673828 11.174216,11.174216 0 0 0 59.173828,45.5 11.174216,11.174216 0 0 0 48,34.326172 Z m -2.613281,4.140625 h 5.226562 v 4.419922 h 4.419922 v 5.226562 h -4.419922 v 4.419922 h -5.226562 v -4.419922 h -4.419922 v -5.226562 h 4.419922 z"
     style="opacity:1;fill:#ffffff;fill-opacity:1;stroke:none;stroke-width:1.65156829;stroke-linecap:round;stroke-linejoin:round;stroke-miterlimit:4;stroke-dasharray:none;stroke-dashoffset:0;stroke-opacity:1"
     inkscape:connector-curvature="0" /></g><text
   id="text1072"
   y="72.180679"
   x="59.749996"
   style="font-style:normal;font-variant:normal;font-weight:bold;font-stretch:normal;font-size:15.99999905px;line-height:1.25;font-family:Tahoma;-inkscape-font-specification:'Tahoma, Bold';font-variant-ligatures:normal;font-variant-caps:normal;font-variant-numeric:normal;font-feature-settings:normal;text-align:center;letter-spacing:0px;word-spacing:0px;writing-mode:lr-tb;text-anchor:middle;fill:#ffffff;fill-opacity:1;stroke:none;stroke-width:0.30226102;"
   xml:space="preserve"><tspan
     style="font-style:normal;font-variant:normal;font-weight:bold;font-stretch:normal;font-size:15.99999905px;font-family:Tahoma;-inkscape-font-specification:'Tahoma, Bold';font-variant-ligatures:normal;font-variant-caps:normal;font-variant-numeric:normal;font-feature-settings:normal;text-align:center;writing-mode:lr-tb;text-anchor:middle;fill:#ffffff;stroke-width:0.30226102;"
     y="72.180679"
     x="59.749996"
     sodipodi:role="line"
     id="tspan1070">NOVO CLIENTE</tspan></text>
</svg>